<mxfile host="app.diagrams.net" modified="2023-08-09T19:41:36.345Z" agent="Mozilla/5.0 (Windows NT 10.0; Win64; x64) AppleWebKit/537.36 (KHTML, like Gecko) Chrome/115.0.0.0 Safari/537.36" version="21.5.0" etag="zWJZ8_Jvtgzt0znn9qok" type="github">
  <diagram name="Page-1" id="dUP9LheJliau_sVG-xHS">
    <mxGraphModel>
      <root>
        <mxCell id="0" />
        <mxCell id="1" parent="0" />
      </root>
    </mxGraphModel>
  </diagram>
</mxfile>
